<svg xmlns="http://www.w3.org/2000/svg" xmlns:xlink="http://www.w3.org/1999/xlink" width="500" zoomAndPan="magnify" viewBox="0 0 375 374.999991" height="500" preserveAspectRatio="xMidYMid meet" version="1.0"><defs><g/></defs><g fill="#00aff0" fill-opacity="1"><g transform="translate(196.638751, 222.818926)"><g><path d="M 10.328125 -1.546875 C 7.242188 -3.046875 4.769531 -5.160156 2.90625 -7.890625 C 1.050781 -10.628906 -0.015625 -13.640625 -0.296875 -16.921875 C -0.578125 -20.210938 -0.00390625 -23.363281 1.421875 -26.375 L 23.875 -74 C 25.539062 -77.5625 27.914062 -80.253906 31 -82.078125 C 34.09375 -83.898438 37.398438 -84.828125 40.921875 -84.859375 C 44.441406 -84.898438 47.742188 -84.03125 50.828125 -82.25 C 53.921875 -80.46875 56.335938 -77.757812 58.078125 -74.125 L 80.765625 -26.375 C 82.273438 -23.363281 82.867188 -20.210938 82.546875 -16.921875 C 82.234375 -13.640625 81.164062 -10.628906 79.34375 -7.890625 C 77.519531 -5.160156 75.023438 -3.046875 71.859375 -1.546875 C 68.773438 -0.117188 65.566406 0.453125 62.234375 0.171875 C 58.910156 -0.0976562 55.898438 -1.160156 53.203125 -3.015625 C 50.515625 -4.878906 48.421875 -7.359375 46.921875 -10.453125 L 36.703125 -31.953125 C 36.617188 -32.191406 36.421875 -32.269531 36.109375 -32.1875 C 35.796875 -32.113281 35.675781 -31.878906 35.75 -31.484375 L 38.953125 -18.171875 L 35.390625 -10.453125 C 33.890625 -7.359375 31.769531 -4.878906 29.03125 -3.015625 C 26.300781 -1.160156 23.289062 -0.0976562 20 0.171875 C 16.71875 0.453125 13.492188 -0.117188 10.328125 -1.546875 Z M 10.328125 -1.546875 "/></g></g></g><g fill="#00aff0" fill-opacity="1"><g transform="translate(19.251588, 222.818926)"><g><path d="M 42.765625 -85.515625 C 48.703125 -85.515625 54.300781 -84.382812 59.5625 -82.125 C 64.832031 -79.875 69.445312 -76.769531 73.40625 -72.8125 C 77.363281 -68.851562 80.46875 -64.257812 82.71875 -59.03125 C 84.976562 -53.800781 86.109375 -48.21875 86.109375 -42.28125 C 86.109375 -36.34375 84.976562 -30.757812 82.71875 -25.53125 C 80.46875 -20.3125 77.363281 -15.738281 73.40625 -11.8125 C 69.445312 -7.894531 64.832031 -4.828125 59.5625 -2.609375 C 54.300781 -0.390625 48.703125 0.71875 42.765625 0.71875 C 36.898438 0.71875 31.351562 -0.390625 26.125 -2.609375 C 20.90625 -4.828125 16.316406 -7.894531 12.359375 -11.8125 C 8.398438 -15.738281 5.289062 -20.3125 3.03125 -25.53125 C 0.769531 -30.757812 -0.359375 -36.34375 -0.359375 -42.28125 C -0.359375 -48.21875 0.769531 -53.800781 3.03125 -59.03125 C 5.289062 -64.257812 8.398438 -68.851562 12.359375 -72.8125 C 16.316406 -76.769531 20.90625 -79.875 26.125 -82.125 C 31.351562 -84.382812 36.898438 -85.515625 42.765625 -85.515625 Z M 42.765625 -46.796875 C 41.734375 -46.796875 40.757812 -46.378906 39.84375 -45.546875 C 38.9375 -44.722656 38.484375 -43.632812 38.484375 -42.28125 C 38.484375 -41.019531 38.9375 -39.929688 39.84375 -39.015625 C 40.757812 -38.109375 41.734375 -37.65625 42.765625 -37.65625 C 44.023438 -37.65625 45.109375 -38.109375 46.015625 -39.015625 C 46.929688 -39.929688 47.390625 -41.019531 47.390625 -42.28125 C 47.390625 -43.632812 46.929688 -44.722656 46.015625 -45.546875 C 45.109375 -46.378906 44.023438 -46.796875 42.765625 -46.796875 Z M 42.765625 -46.796875 "/></g></g></g><g fill="#00aff0" fill-opacity="1"><g transform="translate(106.129972, 137.013057)"><g><path d="M 80.5625 52.703125 C 83.0625 55.285156 84.734375 58.210938 85.578125 61.484375 C 86.429688 64.753906 86.429688 68.023438 85.578125 71.296875 C 84.734375 74.566406 83.0625 77.410156 80.5625 79.828125 C 78.050781 82.410156 75.160156 84.125 71.890625 84.96875 C 68.617188 85.820312 65.347656 85.820312 62.078125 84.96875 C 58.804688 84.125 55.878906 82.410156 53.296875 79.828125 L 43.484375 70.265625 L 32.703125 81.046875 C 30.203125 83.628906 27.296875 85.34375 23.984375 86.1875 C 20.671875 87.039062 17.378906 87.039062 14.109375 86.1875 C 10.835938 85.34375 7.953125 83.628906 5.453125 81.046875 C 2.953125 78.617188 1.273438 75.769531 0.421875 72.5 C -0.421875 69.226562 -0.421875 65.957031 0.421875 62.6875 C 1.273438 59.414062 2.953125 56.488281 5.453125 53.90625 L 16.234375 43.125 L 7.03125 34.28125 C 4.769531 32.1875 3.03125 29.90625 1.8125 27.4375 C 0.601562 24.976562 0 22.171875 0 19.015625 C 0 15.546875 0.847656 12.359375 2.546875 9.453125 C 4.242188 6.546875 6.546875 4.242188 9.453125 2.546875 C 12.359375 0.847656 15.546875 0 19.015625 0 L 66.984375 0 C 70.617188 0 73.890625 0.847656 76.796875 2.546875 C 79.710938 4.242188 82.015625 6.546875 83.703125 9.453125 C 85.398438 12.359375 86.25 15.546875 86.25 19.015625 C 86.25 23.785156 84.832031 27.925781 82 31.4375 C 79.175781 34.945312 75.585938 37.226562 71.234375 38.28125 L 61.171875 31.25 C 60.847656 31.175781 60.546875 31.28125 60.265625 31.5625 C 59.984375 31.84375 60.003906 32.144531 60.328125 32.46875 Z M 80.5625 52.703125 "/></g></g></g><g fill="#00aff0" fill-opacity="1"><g transform="translate(283.584721, 223.709755)"><g><path d="M 0 -66.625 C 0 -70.257812 0.828125 -73.550781 2.484375 -76.5 C 4.140625 -79.445312 6.441406 -81.785156 9.390625 -83.515625 C 12.335938 -85.253906 15.707031 -86.125 19.5 -86.125 L 51.125 -86.125 C 54.914062 -86.125 58.242188 -85.175781 61.109375 -83.28125 C 63.984375 -81.382812 66.1875 -78.921875 67.71875 -75.890625 C 69.25 -72.867188 69.992188 -69.640625 69.953125 -66.203125 C 69.910156 -62.773438 68.921875 -59.523438 66.984375 -56.453125 C 65.046875 -53.304688 62.664062 -51.101562 59.84375 -49.84375 C 57.019531 -48.59375 53.789062 -47.890625 50.15625 -47.734375 C 49.75 -47.734375 49.546875 -47.507812 49.546875 -47.0625 C 49.546875 -46.613281 49.75 -46.3125 50.15625 -46.15625 C 53.46875 -45.75 56.695312 -45.96875 59.84375 -46.8125 C 62.988281 -47.664062 65.773438 -49.34375 68.203125 -51.84375 C 69.816406 -48.289062 70.335938 -44.4375 69.765625 -40.28125 C 69.203125 -36.125 67.59375 -32.710938 64.9375 -30.046875 C 63.15625 -28.023438 61.09375 -26.585938 58.75 -25.734375 C 56.40625 -24.890625 53.941406 -24.304688 51.359375 -23.984375 C 50.960938 -23.984375 50.765625 -23.738281 50.765625 -23.25 C 50.765625 -22.769531 50.960938 -22.53125 51.359375 -22.53125 C 54.515625 -22.207031 57.582031 -22.445312 60.5625 -23.25 C 63.550781 -24.0625 66.175781 -25.800781 68.4375 -28.46875 C 69.082031 -27.414062 69.546875 -26.242188 69.828125 -24.953125 C 70.117188 -23.660156 70.265625 -21.722656 70.265625 -19.140625 C 70.265625 -17.285156 69.898438 -15.242188 69.171875 -13.015625 C 68.441406 -10.796875 67.289062 -8.695312 65.71875 -6.71875 C 64.144531 -4.738281 62.164062 -3.125 59.78125 -1.875 C 57.394531 -0.625 54.507812 0 51.125 0 L 19.265625 0 C 15.710938 0 12.460938 -0.863281 9.515625 -2.59375 C 6.566406 -4.332031 4.242188 -6.65625 2.546875 -9.5625 C 0.847656 -12.476562 0 -15.671875 0 -19.140625 Z M 0 -66.625 "/></g></g></g><g fill="#00aff0" fill-opacity="1"><g transform="translate(138.281246, 129.734395)"><g><path d="M 10.71875 -22.1875 C 13.945312 -22.1875 16.695312 -21.097656 18.96875 -18.921875 C 21.25 -16.753906 22.390625 -14.054688 22.390625 -10.828125 C 22.390625 -8.722656 21.863281 -6.796875 20.8125 -5.046875 C 19.769531 -3.296875 18.367188 -1.894531 16.609375 -0.84375 C 14.859375 0.207031 12.894531 0.734375 10.71875 0.734375 C 8.6875 0.734375 6.796875 0.207031 5.046875 -0.84375 C 3.296875 -1.894531 1.910156 -3.296875 0.890625 -5.046875 C -0.117188 -6.796875 -0.625 -8.722656 -0.625 -10.828125 C -0.625 -14.054688 0.492188 -16.753906 2.734375 -18.921875 C 4.972656 -21.097656 7.632812 -22.1875 10.71875 -22.1875 Z M 10.71875 -22.1875 "/></g></g></g></svg>